<?xml version="1.0" encoding="UTF-8" standalone="no"?>
<!DOCTYPE svg PUBLIC "-//W3C//DTD SVG 1.1//EN" 
  "http://www.w3.org/Graphics/SVG/1.1/DTD/svg11.dtd">
<svg xmlns="http://www.w3.org/2000/svg" viewBox="0 0 48 48">
  <linearGradient id="a" x2="0" y1="545.14" y2="518.14" gradientUnits="userSpaceOnUse">
    <stop offset="0" stop-color="#4dc003"/>
    <stop offset="1" stop-color="#89f907"/>
  </linearGradient>
  <g transform="translate(-662.692 -887.652) scale(1.71429)">
    <circle cx="400.57" cy="531.8" r="14" fill="url(#a)"/>
    <circle cx="400.57" cy="531.8" r="14" fill="none"/>
  </g>
  <g fill="#fff" fill-opacity=".85">
    <path d="M24.016 28.618c1.27 0 2.356-.451 3.26-1.355s1.356-1.99 1.356-3.26v-7.385c0-1.269-.452-2.355-1.356-3.26-.904-.903-1.99-1.355-3.26-1.355-1.269 0-2.355.452-3.26 1.356-.903.903-1.355 1.99-1.355 3.26v7.384c0 1.27.452 2.356 1.356 3.26.903.904 1.99 1.355 3.26 1.355"/>
    <path d="M32.05 21.508a.886.886 0 0 0-.649-.274.887.887 0 0 0-.649.274.887.887 0 0 0-.274.649v1.846c0 1.78-.632 3.3-1.897 4.565-1.264 1.265-2.786 1.897-4.565 1.897s-3.3-.632-4.565-1.897c-1.264-1.264-1.896-2.786-1.896-4.565v-1.846a.887.887 0 0 0-.274-.65.887.887 0 0 0-.65-.273.887.887 0 0 0-.649.274.887.887 0 0 0-.274.649v1.846c0 2.125.71 3.974 2.128 5.547 1.418 1.572 3.17 2.473 5.258 2.704v1.904H19.4a.887.887 0 0 0-.649.274.887.887 0 0 0-.274.65c0 .249.092.466.274.648a.887.887 0 0 0 .65.274h9.23c.25 0 .466-.091.649-.274a.887.887 0 0 0 .274-.649.887.887 0 0 0-.274-.649.886.886 0 0 0-.65-.274h-3.69v-1.904c2.086-.23 3.839-1.132 5.257-2.704s2.128-3.421 2.128-5.547v-1.846a.887.887 0 0 0-.274-.65"/>
  </g>
</svg>
